<svg xmlns="http://www.w3.org/2000/svg" viewBox="0 0 512 512">
  <defs>
    <linearGradient id="bg" x1="64" y1="64" x2="448" y2="448" gradientUnits="userSpaceOnUse">
      <stop offset="0" stop-color="#22d3ee"/>
      <stop offset="1" stop-color="#2563eb"/>
    </linearGradient>
  </defs>
  <rect width="512" height="512" rx="112" fill="#020617"/>
  <rect x="48" y="48" width="416" height="416" rx="92" fill="url(#bg)"/>
  <path fill="#fff" d="M157 372V140h105c31 0 56 7 74 22 18 14 27 35 27 62 0 18-4 33-13 46-9 13-22 23-38 30l60 72H300l-50-62h-31v62h-62Zm62-111h40c14 0 25-3 32-9 8-6 12-15 12-27s-4-21-12-27c-7-6-18-9-32-9h-40v72Z"/>
</svg>
